<svg width="12" height="10" viewBox="0 0 12 10" fill="none" xmlns="http://www.w3.org/2000/svg">
<g clip-path="url(#clip0_1524_4013)">
<mask id="mask0_1524_4013" style="mask-type:luminance" maskUnits="userSpaceOnUse" x="0" y="0" width="12" height="10">
<path d="M11.2502 0.933105H0.750244V9.06691H11.2502V0.933105Z" fill="white"/>
</mask>
<g mask="url(#mask0_1524_4013)">
<path d="M9.63894 1.65757C8.9697 1.3505 8.25205 1.12426 7.5017 0.994684C7.48804 0.992183 7.47439 0.998433 7.46735 1.01093C7.37505 1.17509 7.27281 1.38924 7.20122 1.55757C6.39417 1.43675 5.59126 1.43675 4.80076 1.55757C4.72915 1.3855 4.62321 1.17509 4.5305 1.01093C4.52346 0.99885 4.50981 0.9926 4.49614 0.994684C3.7462 1.12385 3.02855 1.35008 2.3589 1.65757C2.35311 1.66007 2.34814 1.66424 2.34484 1.66965C0.983603 3.70331 0.610703 5.68699 0.793635 7.64606C0.794463 7.65565 0.799843 7.66482 0.807293 7.67064C1.7054 8.33019 2.57537 8.7306 3.42918 8.996C3.44284 9.00017 3.45732 8.99517 3.46602 8.98391C3.66799 8.7081 3.84803 8.41728 4.00239 8.11145C4.0115 8.09354 4.0028 8.07229 3.98419 8.06521C3.69861 7.95688 3.42669 7.8248 3.16513 7.67481C3.14444 7.66273 3.14278 7.63314 3.16181 7.61897C3.21686 7.57773 3.27192 7.53481 3.32447 7.49148C3.33398 7.48357 3.34723 7.4819 3.35841 7.48689C5.07681 8.27145 6.93717 8.27145 8.63529 7.48689C8.64647 7.48148 8.65972 7.48315 8.66964 7.49106C8.72221 7.5344 8.77726 7.57773 8.83272 7.61897C8.85175 7.63314 8.85051 7.66273 8.82982 7.67481C8.56825 7.82771 8.29633 7.95688 8.01034 8.06479C7.99172 8.07188 7.98344 8.09354 7.99255 8.11145C8.15023 8.41685 8.33027 8.70767 8.52851 8.9835C8.53679 8.99517 8.55169 9.00017 8.56535 8.996C9.4233 8.7306 10.2933 8.33019 11.1914 7.67064C11.1992 7.66482 11.2042 7.65606 11.205 7.64648C11.424 5.38157 10.8383 3.41416 9.65259 1.67007C9.64969 1.66424 9.64474 1.66007 9.63894 1.65757ZM4.259 6.45319C3.74165 6.45319 3.31536 5.97822 3.31536 5.39491C3.31536 4.8116 3.73338 4.33663 4.259 4.33663C4.78875 4.33663 5.21091 4.81577 5.20263 5.39491C5.20263 5.97822 4.78461 6.45319 4.259 6.45319ZM7.74795 6.45319C7.23061 6.45319 6.80432 5.97822 6.80432 5.39491C6.80432 4.8116 7.22233 4.33663 7.74795 4.33663C8.27771 4.33663 8.69985 4.81577 8.69159 5.39491C8.69159 5.97822 8.27771 6.45319 7.74795 6.45319Z" fill="white"/>
</g>
</g>
<defs>
<clipPath id="clip0_1524_4013">
<rect width="10.5" height="8.13381" fill="white" transform="translate(0.75 0.933105)"/>
</clipPath>
</defs>
</svg>
