<svg width="50" height="51" viewBox="0 0 50 51" fill="none" xmlns="http://www.w3.org/2000/svg">
<path d="M25.261 4.41675V19.7541C25.261 19.8192 25.1959 19.8843 25.1308 19.8843C24.675 20.0834 24.2844 20.2806 23.8286 20.4777C23.2427 20.74 22.5916 21.0042 22.0056 21.3334L19.8571 22.3193L18.0992 23.1099L15.9507 24.0977C15.3647 24.3618 14.7787 24.6241 14.1277 24.9534C13.6719 25.1506 13.1511 25.4147 12.6953 25.6119C12.6302 25.6119 12.6302 25.677 12.5651 25.6119H12.5C12.6953 25.2826 12.8906 25.0185 13.086 24.6911C14.1277 22.9127 15.2345 21.1362 16.2762 19.3579C17.383 17.4512 18.555 15.5408 19.6618 13.6322C20.7035 11.8557 21.7452 10.0792 22.7869 8.36782C23.5682 7.04893 24.3495 5.80074 25.0657 4.48186C25.1959 4.48186 25.1959 4.41675 25.261 4.41675C25.261 4.41675 25.1959 4.41675 25.261 4.41675Z" fill="#8C8C8C"/>
<path d="M37.8912 25.6118C36.9146 26.2703 35.8729 26.8618 34.8963 27.4534C31.706 29.3638 28.5809 31.2073 25.3906 33.1158C25.3255 33.1158 25.3255 33.1809 25.2604 33.1809C25.1953 33.1809 25.1953 33.1158 25.1953 33.1158V19.8842C25.1953 19.8191 25.2604 19.8191 25.3255 19.8191C25.586 19.9493 25.8464 20.0832 26.1719 20.2135C26.9532 20.6097 27.7996 20.9389 28.5809 21.3333C29.2971 21.6626 29.9481 21.9918 30.6643 22.2541C31.3805 22.5834 32.0316 22.9126 32.7477 23.2419C33.3337 23.506 33.9848 23.7683 34.5707 24.0976C35.1567 24.3617 35.8078 24.624 36.3937 24.9532C36.8495 25.1504 37.3052 25.4146 37.8261 25.6118C37.8261 25.5467 37.8261 25.6118 37.8912 25.6118Z" fill="#141414"/>
<path d="M25.2603 46.0833C25.1952 46.0833 25.2603 46.0833 25.2603 46.0833C25.1952 46.0833 25.1952 46.0833 25.1301 46.0164C23.828 44.1748 22.5909 42.3964 21.2888 40.5529L17.3824 35.0244C16.1453 33.2479 14.8432 31.4714 13.6062 29.6261L12.6296 28.244C12.6296 28.1789 12.5645 28.1789 12.5645 28.1138C12.6296 28.1138 12.6296 28.1789 12.6947 28.1789C14.4526 29.2318 16.2756 30.2846 18.0334 31.3375C20.0518 32.5894 22.1352 33.7744 24.1535 35.0244C24.479 35.2216 24.8697 35.4188 25.1952 35.616C25.2603 35.616 25.2603 35.6829 25.2603 35.748V46.0833Z" fill="#8C8C8C"/>
<path d="M12.5 24.9229C12.5 24.8578 12.5 24.8578 12.5 24.9229C13.1511 24.5936 13.8021 24.3313 14.4532 24.0021L16.9924 22.8171C17.6435 22.4879 18.2945 22.2256 18.9456 21.8963C19.8571 21.435 20.8337 21.0406 21.7452 20.5793C22.3963 20.3152 23.0473 19.9859 23.6984 19.7236C24.1542 19.5264 24.6099 19.3293 25.0657 19.0651C25.1308 19.0651 25.1308 19 25.1959 19V32.4269C25.1308 32.4939 25.1308 32.4269 25.0657 32.4269C24.8703 32.2967 24.675 32.2298 24.5448 32.0977L12.6302 24.9899C12.5651 24.9229 12.5 24.9229 12.5 24.9229ZM37.6964 27.3597C37.6964 27.4249 37.6964 27.4249 37.6313 27.49C33.8551 32.8883 30.0789 38.2196 26.3027 43.6179C25.9121 44.2095 25.5214 44.7359 25.1308 45.3293V34.8619C25.9772 34.3355 26.8236 33.8091 27.67 33.3496L37.6313 27.4249C37.6313 27.3597 37.6964 27.3597 37.6964 27.3597Z" fill="#3C3C3B"/>
<path d="M25.2598 19.8192V4.4856L37.7603 25.4166C37.8254 25.4817 37.8905 25.5468 37.8905 25.6138C37.6301 25.4836 37.3697 25.3496 37.0441 25.2194C36.7186 25.0873 36.3931 24.8902 36.0675 24.7581C35.8722 24.693 35.6769 24.5609 35.4165 24.4939C35.0909 24.3637 34.7003 24.1647 34.3748 24.0345C34.1794 23.9675 33.9841 23.8373 33.7888 23.7703L32.4215 23.1788C32.1611 23.0467 31.9658 22.9816 31.7054 22.8495C31.3798 22.7174 31.0543 22.5203 30.7288 22.3882C30.5334 22.3231 30.3381 22.191 30.1428 22.1259L28.7755 21.5325C28.5151 21.4023 28.3198 21.3353 28.0594 21.2032C27.7338 21.073 27.4083 20.874 27.0828 20.7419C26.8874 20.6117 26.627 20.5447 26.4317 20.4145L25.2598 19.8211V19.8192Z" fill="#343434"/>
</svg>
