<svg width="18" height="19" viewBox="0 0 18 19" fill="none" xmlns="http://www.w3.org/2000/svg">
<path d="M10.8974 7.60244L7.10244 11.3974C6.61494 10.9099 6.31494 10.2424 6.31494 9.49994C6.31494 8.01494 7.51494 6.81494 8.99994 6.81494C9.74244 6.81494 10.4099 7.11494 10.8974 7.60244Z" stroke="white" stroke-width="1.5" stroke-linecap="round" stroke-linejoin="round"/>
<path d="M13.3649 4.82736C12.0524 3.83736 10.5524 3.29736 8.99988 3.29736C6.35238 3.29736 3.88488 4.85736 2.16738 7.55736C1.49238 8.61486 1.49238 10.3924 2.16738 11.4499C2.75988 12.3799 3.44988 13.1824 4.19988 13.8274" stroke="white" stroke-width="1.5" stroke-linecap="round" stroke-linejoin="round"/>
<path d="M6.31494 15.1478C7.16994 15.5078 8.07744 15.7028 8.99994 15.7028C11.6474 15.7028 14.1149 14.1428 15.8324 11.4428C16.5074 10.3853 16.5074 8.60775 15.8324 7.55025C15.5849 7.16025 15.3149 6.79275 15.0374 6.44775" stroke="white" stroke-width="1.5" stroke-linecap="round" stroke-linejoin="round"/>
<path d="M11.6326 10.0254C11.4376 11.0829 10.5751 11.9454 9.51758 12.1404" stroke="white" stroke-width="1.5" stroke-linecap="round" stroke-linejoin="round"/>
<path d="M7.1025 11.3975L1.5 17" stroke="white" stroke-width="1.5" stroke-linecap="round" stroke-linejoin="round"/>
<path d="M16.5 2L10.8975 7.6025" stroke="white" stroke-width="1.5" stroke-linecap="round" stroke-linejoin="round"/>
</svg>
