<svg width="18" height="19" viewBox="0 0 18 19" fill="none" xmlns="http://www.w3.org/2000/svg">
<path d="M9 2.25C4.8675 2.25 1.5 5.6175 1.5 9.75C1.5 13.8825 4.8675 17.25 9 17.25C13.1325 17.25 16.5 13.8825 16.5 9.75C16.5 5.6175 13.1325 2.25 9 2.25ZM8.4375 6.75C8.4375 6.4425 8.6925 6.1875 9 6.1875C9.3075 6.1875 9.5625 6.4425 9.5625 6.75V10.5C9.5625 10.8075 9.3075 11.0625 9 11.0625C8.6925 11.0625 8.4375 10.8075 8.4375 10.5V6.75ZM9.69 13.035C9.6525 13.1325 9.6 13.2075 9.5325 13.2825C9.4575 13.35 9.375 13.4025 9.285 13.44C9.195 13.4775 9.0975 13.5 9 13.5C8.9025 13.5 8.805 13.4775 8.715 13.44C8.625 13.4025 8.5425 13.35 8.4675 13.2825C8.4 13.2075 8.3475 13.1325 8.31 13.035C8.2725 12.945 8.25 12.8475 8.25 12.75C8.25 12.6525 8.2725 12.555 8.31 12.465C8.3475 12.375 8.4 12.2925 8.4675 12.2175C8.5425 12.15 8.625 12.0975 8.715 12.06C8.895 11.985 9.105 11.985 9.285 12.06C9.375 12.0975 9.4575 12.15 9.5325 12.2175C9.6 12.2925 9.6525 12.375 9.69 12.465C9.7275 12.555 9.75 12.6525 9.75 12.75C9.75 12.8475 9.7275 12.945 9.69 13.035Z" fill="#101010" fill-opacity="0.3"/>
</svg>
