<svg width="18" height="19" viewBox="0 0 18 19" fill="none" xmlns="http://www.w3.org/2000/svg">
<path d="M9 1.75C4.8675 1.75 1.5 5.1175 1.5 9.25C1.5 13.3825 4.8675 16.75 9 16.75C13.1325 16.75 16.5 13.3825 16.5 9.25C16.5 5.1175 13.1325 1.75 9 1.75ZM8.4375 6.25C8.4375 5.9425 8.6925 5.6875 9 5.6875C9.3075 5.6875 9.5625 5.9425 9.5625 6.25V10C9.5625 10.3075 9.3075 10.5625 9 10.5625C8.6925 10.5625 8.4375 10.3075 8.4375 10V6.25ZM9.69 12.535C9.6525 12.6325 9.6 12.7075 9.5325 12.7825C9.4575 12.85 9.375 12.9025 9.285 12.94C9.195 12.9775 9.0975 13 9 13C8.9025 13 8.805 12.9775 8.715 12.94C8.625 12.9025 8.5425 12.85 8.4675 12.7825C8.4 12.7075 8.3475 12.6325 8.31 12.535C8.2725 12.445 8.25 12.3475 8.25 12.25C8.25 12.1525 8.2725 12.055 8.31 11.965C8.3475 11.875 8.4 11.7925 8.4675 11.7175C8.5425 11.65 8.625 11.5975 8.715 11.56C8.895 11.485 9.105 11.485 9.285 11.56C9.375 11.5975 9.4575 11.65 9.5325 11.7175C9.6 11.7925 9.6525 11.875 9.69 11.965C9.7275 12.055 9.75 12.1525 9.75 12.25C9.75 12.3475 9.7275 12.445 9.69 12.535Z" fill="white" fill-opacity="0.6"/>
</svg>
