<svg width="21" height="20" viewBox="0 0 21 20" fill="none" xmlns="http://www.w3.org/2000/svg">
<path d="M14.3039 7.32863C14.0333 7.16919 13.6816 7.16919 13.3841 7.32863L11.2739 8.55101L9.84013 9.34823L7.73003 10.5706C7.4595 10.73 7.10781 10.73 6.81023 10.5706L5.13296 9.61392C4.86243 9.45448 4.67306 9.1622 4.67306 8.84332V6.9566C4.67306 6.63772 4.83538 6.34541 5.13296 6.18597L6.78317 5.2559C7.0537 5.09646 7.40539 5.09646 7.70297 5.2559L9.35321 6.18597C9.62371 6.34541 9.81309 6.63772 9.81309 6.9566V8.17898L11.2469 7.3552V6.13283C11.2469 5.81394 11.0846 5.52164 10.787 5.36219L7.73003 3.60835C7.4595 3.44891 7.10781 3.44891 6.81023 3.60835L3.69916 5.36219C3.40157 5.52164 3.23926 5.81394 3.23926 6.13283V9.6671C3.23926 9.98597 3.40157 10.2783 3.69916 10.4377L6.81023 12.1916C7.08075 12.351 7.43245 12.351 7.73003 12.1916L9.84013 10.9958L11.2739 10.172L13.3841 8.97618C13.6546 8.81674 14.0063 8.81674 14.3039 8.97618L15.9541 9.90625C16.2246 10.0657 16.414 10.358 16.414 10.6769V12.5636C16.414 12.8825 16.2517 13.1748 15.9541 13.3342L14.3039 14.2909C14.0333 14.4503 13.6816 14.4503 13.3841 14.2909L11.7339 13.3608C11.4633 13.2014 11.2739 12.909 11.2739 12.5902V11.3678L9.84013 12.1916V13.4139C9.84013 13.7328 10.0025 14.0251 10.3 14.1846L13.4111 15.9384C13.6816 16.0978 14.0333 16.0978 14.3309 15.9384L17.442 14.1846C17.7125 14.0251 17.9019 13.7328 17.9019 13.4139V9.87966C17.9019 9.56079 17.7395 9.26851 17.442 9.10908L14.3039 7.32863Z" fill="white"/>
</svg>
