<svg width="18" height="19" viewBox="0 0 18 19" fill="none" xmlns="http://www.w3.org/2000/svg">
<path d="M15.075 7.16507C13.7175 7.16507 13.1625 6.20507 13.8375 5.02757C14.2275 4.34507 13.995 3.47507 13.3125 3.08507L12.015 2.34257C11.4225 1.99007 10.6575 2.20007 10.305 2.79257L10.2225 2.93507C9.5475 4.11257 8.4375 4.11257 7.755 2.93507L7.6725 2.79257C7.335 2.20007 6.57 1.99007 5.9775 2.34257L4.68 3.08507C3.9975 3.47507 3.765 4.35257 4.155 5.03507C4.8375 6.20507 4.2825 7.16507 2.925 7.16507C2.145 7.16507 1.5 7.80257 1.5 8.59007V9.91007C1.5 10.6901 2.1375 11.3351 2.925 11.3351C4.2825 11.3351 4.8375 12.2951 4.155 13.4726C3.765 14.1551 3.9975 15.0251 4.68 15.4151L5.9775 16.1576C6.57 16.5101 7.335 16.3001 7.6875 15.7076L7.77 15.5651C8.445 14.3876 9.555 14.3876 10.2375 15.5651L10.32 15.7076C10.6725 16.3001 11.4375 16.5101 12.03 16.1576L13.3275 15.4151C14.01 15.0251 14.2425 14.1476 13.8525 13.4726C13.17 12.2951 13.725 11.3351 15.0825 11.3351C15.8625 11.3351 16.5075 10.6976 16.5075 9.91007V8.59007C16.5 7.81007 15.8625 7.16507 15.075 7.16507ZM9 11.6876C7.6575 11.6876 6.5625 10.5926 6.5625 9.25007C6.5625 7.90757 7.6575 6.81257 9 6.81257C10.3425 6.81257 11.4375 7.90757 11.4375 9.25007C11.4375 10.5926 10.3425 11.6876 9 11.6876Z" fill="white" fill-opacity="0.8"/>
</svg>
