<svg width="18" height="19" viewBox="0 0 18 19" fill="none" xmlns="http://www.w3.org/2000/svg">
<path d="M15.075 7.66507C13.7175 7.66507 13.1625 6.70507 13.8375 5.52757C14.2275 4.84507 13.995 3.97507 13.3125 3.58507L12.015 2.84257C11.4225 2.49007 10.6575 2.70007 10.305 3.29257L10.2225 3.43507C9.5475 4.61257 8.4375 4.61257 7.755 3.43507L7.6725 3.29257C7.335 2.70007 6.57 2.49007 5.9775 2.84257L4.68 3.58507C3.9975 3.97507 3.765 4.85257 4.155 5.53507C4.8375 6.70507 4.2825 7.66507 2.925 7.66507C2.145 7.66507 1.5 8.30257 1.5 9.09007V10.4101C1.5 11.1901 2.1375 11.8351 2.925 11.8351C4.2825 11.8351 4.8375 12.7951 4.155 13.9726C3.765 14.6551 3.9975 15.5251 4.68 15.9151L5.9775 16.6576C6.57 17.0101 7.335 16.8001 7.6875 16.2076L7.77 16.0651C8.445 14.8876 9.555 14.8876 10.2375 16.0651L10.32 16.2076C10.6725 16.8001 11.4375 17.0101 12.03 16.6576L13.3275 15.9151C14.01 15.5251 14.2425 14.6476 13.8525 13.9726C13.17 12.7951 13.725 11.8351 15.0825 11.8351C15.8625 11.8351 16.5075 11.1976 16.5075 10.4101V9.09007C16.5 8.31007 15.8625 7.66507 15.075 7.66507ZM9 12.1876C7.6575 12.1876 6.5625 11.0926 6.5625 9.75007C6.5625 8.40757 7.6575 7.31257 9 7.31257C10.3425 7.31257 11.4375 8.40757 11.4375 9.75007C11.4375 11.0926 10.3425 12.1876 9 12.1876Z" fill="#101010" fill-opacity="0.6"/>
</svg>
