<svg width="113" height="121" viewBox="0 0 113 121" fill="none" xmlns="http://www.w3.org/2000/svg">
<g filter="url(#filter0_dddd_240_3947)">
<g clip-path="url(#clip0_240_3947)">
<path d="M75.6919 3H37.3081C21.674 3 9 15.674 9 31.3081V69.6919C9 85.326 21.674 98 37.3081 98H75.6919C91.326 98 104 85.326 104 69.6919V31.3081C104 15.674 91.326 3 75.6919 3Z" fill="url(#paint0_linear_240_3947)"/>
<path d="M72.8131 12.596H40.1868C28.2625 12.596 18.5959 22.2626 18.5959 34.1869V66.8132C18.5959 78.7375 28.2625 88.4041 40.1868 88.4041H72.8131C84.7374 88.4041 94.404 78.7375 94.404 66.8132V34.1869C94.404 22.2626 84.7374 12.596 72.8131 12.596Z" fill="url(#paint1_linear_240_3947)"/>
<path d="M68.0151 22.1919H44.9848C35.7103 22.1919 28.1919 29.7103 28.1919 38.9848V62.0151C28.1919 71.2896 35.7103 78.808 44.9848 78.808H68.0151C77.2896 78.808 84.808 71.2896 84.808 62.0151V38.9848C84.808 29.7103 77.2896 22.1919 68.0151 22.1919Z" fill="url(#paint2_linear_240_3947)"/>
<path d="M75.6919 3H37.3081C21.674 3 9 15.674 9 31.3081V69.6919C9 85.326 21.674 98 37.3081 98H75.6919C91.326 98 104 85.326 104 69.6919V31.3081C104 15.674 91.326 3 75.6919 3Z" stroke="url(#paint3_linear_240_3947)" stroke-width="0.121776"/>
<path d="M72.8131 12.596H40.1868C28.2625 12.596 18.5959 22.2626 18.5959 34.1869V66.8132C18.5959 78.7375 28.2625 88.4041 40.1868 88.4041H72.8131C84.7374 88.4041 94.404 78.7375 94.404 66.8132V34.1869C94.404 22.2626 84.7374 12.596 72.8131 12.596Z" stroke="url(#paint4_linear_240_3947)" stroke-width="0.121776"/>
<path d="M68.0151 22.1919H44.9848C35.7103 22.1919 28.1919 29.7103 28.1919 38.9848V62.0151C28.1919 71.2896 35.7103 78.808 44.9848 78.808H68.0151C77.2896 78.808 84.808 71.2896 84.808 62.0151V38.9848C84.808 29.7103 77.2896 22.1919 68.0151 22.1919Z" stroke="url(#paint5_linear_240_3947)" stroke-width="0.121776"/>
<path opacity="0.5" fill-rule="evenodd" clip-rule="evenodd" d="M56.4927 51.4425V97.9854H57.4425V51.4425H103.985V50.4927H57.4425V3H56.4927V50.4927H9V51.4425H56.4927Z" fill="url(#paint6_linear_240_3947)"/>
<path fill-rule="evenodd" clip-rule="evenodd" d="M57.4005 38.5872V26.2367L37.0029 18.1934V27.3313C37.0029 29.2914 38.1465 31.0442 39.8685 31.7233L54.5349 37.5069C56.2535 38.1845 57.396 39.9318 57.4005 41.8873V50.9873L74.9324 44.0737C76.6544 43.3948 77.798 41.6419 77.798 39.6818V30.5439L57.4005 38.5872ZM57.4006 53.422V51.0423L37.003 42.999V52.1369C37.003 54.0971 38.1466 55.8499 39.8686 56.5289L49.0258 60.1399V79.233H57.4298V53.422H57.4006Z" fill="white"/>
</g>
</g>
<defs>
<filter id="filter0_dddd_240_3947" x="0" y="0" width="113" height="121" filterUnits="userSpaceOnUse" color-interpolation-filters="sRGB">
<feFlood flood-opacity="0" result="BackgroundImageFix"/>
<feColorMatrix in="SourceAlpha" type="matrix" values="0 0 0 0 0 0 0 0 0 0 0 0 0 0 0 0 0 0 127 0" result="hardAlpha"/>
<feOffset dy="1"/>
<feGaussianBlur stdDeviation="1.5"/>
<feColorMatrix type="matrix" values="0 0 0 0 0.501961 0 0 0 0 0.501961 0 0 0 0 0.501961 0 0 0 0.18 0"/>
<feBlend mode="normal" in2="BackgroundImageFix" result="effect1_dropShadow_240_3947"/>
<feColorMatrix in="SourceAlpha" type="matrix" values="0 0 0 0 0 0 0 0 0 0 0 0 0 0 0 0 0 0 127 0" result="hardAlpha"/>
<feOffset dy="3"/>
<feGaussianBlur stdDeviation="3"/>
<feColorMatrix type="matrix" values="0 0 0 0 0.501961 0 0 0 0 0.501961 0 0 0 0 0.501961 0 0 0 0.15 0"/>
<feBlend mode="normal" in2="effect1_dropShadow_240_3947" result="effect2_dropShadow_240_3947"/>
<feColorMatrix in="SourceAlpha" type="matrix" values="0 0 0 0 0 0 0 0 0 0 0 0 0 0 0 0 0 0 127 0" result="hardAlpha"/>
<feOffset dy="8"/>
<feGaussianBlur stdDeviation="4"/>
<feColorMatrix type="matrix" values="0 0 0 0 0.501961 0 0 0 0 0.501961 0 0 0 0 0.501961 0 0 0 0.09 0"/>
<feBlend mode="normal" in2="effect2_dropShadow_240_3947" result="effect3_dropShadow_240_3947"/>
<feColorMatrix in="SourceAlpha" type="matrix" values="0 0 0 0 0 0 0 0 0 0 0 0 0 0 0 0 0 0 127 0" result="hardAlpha"/>
<feOffset dy="14"/>
<feGaussianBlur stdDeviation="4.5"/>
<feColorMatrix type="matrix" values="0 0 0 0 0.501961 0 0 0 0 0.501961 0 0 0 0 0.501961 0 0 0 0.03 0"/>
<feBlend mode="normal" in2="effect3_dropShadow_240_3947" result="effect4_dropShadow_240_3947"/>
<feBlend mode="normal" in="SourceGraphic" in2="effect4_dropShadow_240_3947" result="shape"/>
</filter>
<linearGradient id="paint0_linear_240_3947" x1="10.2649" y1="4.03536" x2="41.4113" y2="63.2668" gradientUnits="userSpaceOnUse">
<stop stop-color="#1A1A1A"/>
<stop offset="1" stop-color="#101010"/>
</linearGradient>
<linearGradient id="paint1_linear_240_3947" x1="10.1478" y1="3.91777" x2="41.3731" y2="63.2991" gradientUnits="userSpaceOnUse">
<stop stop-color="#1A1A1A"/>
<stop offset="1" stop-color="#111111"/>
</linearGradient>
<linearGradient id="paint2_linear_240_3947" x1="28.7589" y1="22.6212" x2="47.4467" y2="58.16" gradientUnits="userSpaceOnUse">
<stop stop-color="#1A1A1A"/>
<stop offset="1" stop-color="#111111"/>
</linearGradient>
<linearGradient id="paint3_linear_240_3947" x1="31.9275" y1="31.2697" x2="58.7508" y2="55.2336" gradientUnits="userSpaceOnUse">
<stop stop-color="white" stop-opacity="0.11"/>
<stop offset="1" stop-color="white" stop-opacity="0.04"/>
</linearGradient>
<linearGradient id="paint4_linear_240_3947" x1="31.9275" y1="31.2697" x2="58.7508" y2="55.2336" gradientUnits="userSpaceOnUse">
<stop stop-color="white" stop-opacity="0.11"/>
<stop offset="1" stop-color="white" stop-opacity="0.04"/>
</linearGradient>
<linearGradient id="paint5_linear_240_3947" x1="31.9275" y1="31.2697" x2="58.7508" y2="55.2336" gradientUnits="userSpaceOnUse">
<stop stop-color="white" stop-opacity="0.11"/>
<stop offset="1" stop-color="white" stop-opacity="0.04"/>
</linearGradient>
<linearGradient id="paint6_linear_240_3947" x1="30.3717" y1="22.9469" x2="74.54" y2="71.3894" gradientUnits="userSpaceOnUse">
<stop stop-color="#333333"/>
<stop offset="1" stop-color="#1B1B1B" stop-opacity="0.46"/>
</linearGradient>
<clipPath id="clip0_240_3947">
<rect x="9" y="3" width="95" height="95" rx="47.5" fill="white"/>
</clipPath>
</defs>
</svg>
