<svg width="19" height="20" viewBox="0 0 19 20" fill="none" xmlns="http://www.w3.org/2000/svg">
<g clip-path="url(#clip0_1423_3961)">
<path fill-rule="evenodd" clip-rule="evenodd" d="M19 0.25H0V19.25H19V0.25ZM10.079 5.85869V8.32896L14.1585 6.72031V8.54788C14.1585 8.93991 13.9298 9.29048 13.5854 9.42628L10.079 10.809V8.98509C10.0767 8.59551 9.84853 8.24783 9.5059 8.11274L6.57263 6.95603C6.22823 6.82021 5.99951 6.46964 5.99951 6.07761V4.25003L10.079 5.85869ZM10.079 10.8199V11.2959H10.0848V16.4581H8.404V12.6394L6.57263 11.9172C6.22823 11.7814 5.99951 11.4309 5.99951 11.0388V9.21124L10.079 10.8199Z" fill="#808080"/>
</g>
<defs>
<clipPath id="clip0_1423_3961">
<rect y="0.25" width="19" height="19" rx="5" fill="white"/>
</clipPath>
</defs>
</svg>
